<svg width="25" height="24" viewBox="0 0 25 24" fill="none" xmlns="http://www.w3.org/2000/svg">
<path d="M11.5 2H9.5C4.5 2 2.5 4 2.5 9V15C2.5 20 4.5 22 9.5 22H15.5C20.5 22 22.5 20 22.5 15V13" stroke="white" stroke-width="2" stroke-linecap="round" stroke-linejoin="round"/>
<path d="M16.54 3.02025L8.66 10.9003C8.36 11.2003 8.06 11.7903 8 12.2203L7.57 15.2303C7.41 16.3203 8.18 17.0803 9.27 16.9303L12.28 16.5003C12.7 16.4403 13.29 16.1403 13.6 15.8403L21.48 7.96025C22.84 6.60025 23.48 5.02025 21.48 3.02025C19.48 1.02025 17.9 1.66025 16.54 3.02025Z" stroke="white" stroke-width="2" stroke-miterlimit="10" stroke-linecap="round" stroke-linejoin="round"/>
<path d="M15.41 4.15039C16.08 6.54039 17.95 8.41039 20.35 9.09039" stroke="white" stroke-width="2" stroke-miterlimit="10" stroke-linecap="round" stroke-linejoin="round"/>
</svg>
