<svg width="38" height="39" viewBox="0 0 38 39" fill="none" xmlns="http://www.w3.org/2000/svg">
<path d="M33.2024 2.0835H28.5474C27.1699 2.0835 26.1566 2.6535 25.6974 3.66683C25.4441 4.126 25.3333 4.66433 25.3333 5.29766V9.95266C25.3333 11.9635 26.5366 13.1668 28.5474 13.1668H33.2024C33.8358 13.1668 34.3741 13.056 34.8333 12.8027C35.8466 12.3435 36.4166 11.3302 36.4166 9.95266V5.29766C36.4166 3.28683 35.2133 2.0835 33.2024 2.0835ZM34.6908 8.306C34.5324 8.46433 34.2949 8.57516 34.0416 8.591H31.8091V9.3985L31.8249 10.7918C31.8091 11.061 31.7141 11.2827 31.5241 11.4727C31.3658 11.631 31.1283 11.7418 30.8749 11.7418C30.3524 11.7418 29.9249 11.3143 29.9249 10.7918V8.57516L27.7083 8.591C27.1858 8.591 26.7583 8.14766 26.7583 7.62516C26.7583 7.10266 27.1858 6.67516 27.7083 6.67516L29.1016 6.691H29.9249V4.47433C29.9249 3.95183 30.3524 3.5085 30.8749 3.5085C31.3974 3.5085 31.8249 3.95183 31.8249 4.47433L31.8091 5.5985V6.67516H34.0416C34.5641 6.67516 34.9916 7.10266 34.9916 7.62516C34.9758 7.89433 34.8649 8.116 34.6908 8.306Z" fill="#C5C5C5"/>
<path d="M14.25 16.9351C16.3312 16.9351 18.0184 15.248 18.0184 13.1668C18.0184 11.0856 16.3312 9.39844 14.25 9.39844C12.1688 9.39844 10.4817 11.0856 10.4817 13.1668C10.4817 15.248 12.1688 16.9351 14.25 16.9351Z" fill="#C5C5C5"/>
<path d="M33.2026 13.1665H32.4584V20.4657L32.2526 20.2915C31.0176 19.2307 29.0226 19.2307 27.7876 20.2915L21.2009 25.944C19.9659 27.0048 17.9709 27.0048 16.7359 25.944L16.1976 25.5007C15.0734 24.519 13.2842 24.424 12.0176 25.279L6.09591 29.2532C5.74758 28.3665 5.54175 27.3373 5.54175 26.134V12.8657C5.54175 8.40067 7.90091 6.0415 12.3659 6.0415H25.3334V5.29734C25.3334 4.664 25.4442 4.12567 25.6976 3.6665H12.3659C6.60258 3.6665 3.16675 7.10234 3.16675 12.8657V26.134C3.16675 27.8598 3.46758 29.364 4.05341 30.6307C5.41508 33.639 8.32841 35.3332 12.3659 35.3332H25.6342C31.3976 35.3332 34.8334 31.8973 34.8334 26.134V12.8023C34.3742 13.0557 33.8359 13.1665 33.2026 13.1665Z" fill="#C5C5C5"/>
</svg>
