<svg width="24" height="25" viewBox="0 0 24 25" fill="none" xmlns="http://www.w3.org/2000/svg">
<path d="M20.62 8.80156C19.57 4.18156 15.54 2.10156 12 2.10156C12 2.10156 12 2.10156 11.99 2.10156C8.46 2.10156 4.42 4.17156 3.37 8.79156C2.2 13.9516 5.36 18.3216 8.22 21.0716C9.28 22.0916 10.64 22.6016 12 22.6016C13.36 22.6016 14.72 22.0916 15.77 21.0716C18.63 18.3216 21.79 13.9616 20.62 8.80156ZM12 13.8116C10.26 13.8116 8.85 12.4016 8.85 10.6616C8.85 8.92156 10.26 7.51156 12 7.51156C13.74 7.51156 15.15 8.92156 15.15 10.6616C15.15 12.4016 13.74 13.8116 12 13.8116Z" fill="#C5C5C5"/>
</svg>
