<svg width="22" height="22" viewBox="0 0 22 22" fill="none" xmlns="http://www.w3.org/2000/svg">
<path d="M16.5 11.9144H11.9167V16.4977C11.9167 16.7408 11.8201 16.974 11.6482 17.1459C11.4763 17.3178 11.2432 17.4144 11 17.4144C10.7569 17.4144 10.5238 17.3178 10.3519 17.1459C10.18 16.974 10.0834 16.7408 10.0834 16.4977V11.9144H5.50004C5.25693 11.9144 5.02377 11.8178 4.85186 11.6459C4.67995 11.474 4.58337 11.2408 4.58337 10.9977C4.58337 10.7546 4.67995 10.5214 4.85186 10.3495C5.02377 10.1776 5.25693 10.0811 5.50004 10.0811H10.0834V5.49772C10.0834 5.25461 10.18 5.02145 10.3519 4.84954C10.5238 4.67763 10.7569 4.58105 11 4.58105C11.2432 4.58105 11.4763 4.67763 11.6482 4.84954C11.8201 5.02145 11.9167 5.25461 11.9167 5.49772V10.0811H16.5C16.7432 10.0811 16.9763 10.1776 17.1482 10.3495C17.3201 10.5214 17.4167 10.7546 17.4167 10.9977C17.4167 11.2408 17.3201 11.474 17.1482 11.6459C16.9763 11.8178 16.7432 11.9144 16.5 11.9144Z" fill="#111827"/>
</svg>
