<svg width="24" height="25" viewBox="0 0 24 25" fill="none" xmlns="http://www.w3.org/2000/svg">
<path d="M7 5.70312C7 4.04313 8.34 2.70312 10 2.70312H14C15.66 2.70312 17 4.04313 17 5.70312C17 6.25312 16.55 6.70312 16 6.70312H8C7.45 6.70312 7 6.25312 7 5.70312Z" fill="white"/>
<path d="M17.75 15.7031C17.75 16.1131 17.41 16.4531 17 16.4531H16V19.7031C16 21.3631 14.66 22.7031 13 22.7031H11C9.34 22.7031 8 21.3631 8 19.7031V16.4531H7C6.59 16.4531 6.25 16.1131 6.25 15.7031C6.25 15.2931 6.59 14.9531 7 14.9531H17C17.41 14.9531 17.75 15.2931 17.75 15.7031Z" fill="white"/>
<path d="M18 7.70312H6C4 7.70312 3 8.70312 3 10.7031V15.7031C3 17.7031 4 18.7031 6 18.7031H6.375C6.72018 18.7031 7 18.4233 7 18.0781C7 17.7329 6.71131 17.4636 6.38841 17.3415C5.72619 17.0913 5.25 16.4485 5.25 15.7031C5.25 14.7431 6.04 13.9531 7 13.9531H17C17.96 13.9531 18.75 14.7431 18.75 15.7031C18.75 16.4485 18.2738 17.0913 17.6116 17.3415C17.2887 17.4636 17 17.7329 17 18.0781C17 18.4233 17.2798 18.7031 17.625 18.7031H18C20 18.7031 21 17.7031 21 15.7031V10.7031C21 8.70312 20 7.70312 18 7.70312ZM10 12.4531H7C6.59 12.4531 6.25 12.1131 6.25 11.7031C6.25 11.2931 6.59 10.9531 7 10.9531H10C10.41 10.9531 10.75 11.2931 10.75 11.7031C10.75 12.1131 10.41 12.4531 10 12.4531Z" fill="white"/>
</svg>
