<svg width="24" height="25" viewBox="0 0 24 25" fill="none" xmlns="http://www.w3.org/2000/svg">
<path d="M16.65 4.21191H9.91V7.23191C9.91 7.62191 9.59 7.93191 9.21 7.93191C8.83 7.93191 8.51 7.62191 8.51 7.23191V4.21191H7.35C3.4 4.21191 2.1 5.39191 2.01 9.08191C2 9.26191 2.08 9.45191 2.21 9.58191C2.34 9.72191 2.51 9.79191 2.71 9.79191C4.11 9.79191 5.26 10.9519 5.26 12.3519C5.26 13.7519 4.11 14.9119 2.71 14.9119C2.52 14.9119 2.34 14.9819 2.21 15.1219C2.08 15.2519 2 15.4419 2.01 15.6219C2.1 19.3119 3.4 20.4919 7.35 20.4919H8.51V17.4719C8.51 17.0819 8.83 16.7719 9.21 16.7719C9.59 16.7719 9.91 17.0819 9.91 17.4719V20.4919H16.65C20.75 20.4919 22 19.2419 22 15.1419V9.56191C22 5.46191 20.75 4.21191 16.65 4.21191ZM18.47 12.2519L17.54 13.1519C17.5 13.1819 17.49 13.2419 17.5 13.2919L17.72 14.5619C17.76 14.7919 17.67 15.0319 17.47 15.1719C17.28 15.3119 17.03 15.3319 16.82 15.2219L15.67 14.6219C15.63 14.6019 15.57 14.6019 15.53 14.6219L14.38 15.2219C14.29 15.2719 14.19 15.2919 14.09 15.2919C13.96 15.2919 13.84 15.2519 13.73 15.1719C13.54 15.0319 13.44 14.8019 13.48 14.5619L13.7 13.2919C13.71 13.2419 13.69 13.1919 13.66 13.1519L12.73 12.2519C12.56 12.0919 12.5 11.8419 12.57 11.6219C12.64 11.3919 12.83 11.2319 13.07 11.2019L14.35 11.0119C14.4 11.0019 14.44 10.9719 14.47 10.9319L15.04 9.77191C15.15 9.56191 15.36 9.43191 15.6 9.43191C15.84 9.43191 16.05 9.56191 16.15 9.77191L16.72 10.9319C16.74 10.9819 16.78 11.0119 16.83 11.0119L18.11 11.2019C18.35 11.2319 18.54 11.4019 18.61 11.6219C18.7 11.8419 18.64 12.0819 18.47 12.2519Z" fill="#C5C5C5"/>
</svg>
